<svg xmlns="http://www.w3.org/2000/svg" xmlns:xlink="http://www.w3.org/1999/xlink" width="21.977" height="25.998" viewBox="0 0 21.977 25.998">
  <defs>
    <clipPath id="clip-path">
      <rect width="21.977" height="25.998" fill="none"/>
    </clipPath>
  </defs>
  <g id="Packarma_logo" clip-path="url(#clip-path)">
    <g id="Packarma_logo-2" data-name="Packarma_logo" transform="translate(0 0)">
      <path id="Path_15" data-name="Path 15" d="M466.669,291.553l-1.236,1.056c-1.7-1.462-3.437-2.9-5.1-4.4a2.66,2.66,0,0,1-.436-3.517,3.808,3.808,0,0,1,3.641-1.541,3.378,3.378,0,0,1,3,2.525,2.531,2.531,0,0,1-.676,2.363,16.5,16.5,0,0,1-1.473,1.2l-1.142-.994c.349-.284.763-.6,1.139-.937a1.459,1.459,0,0,0-.117-2.315,2.113,2.113,0,0,0-2.663.131,1.448,1.448,0,0,0,.067,2.205c1.528,1.326,3.071,2.64,4.61,3.956C466.4,291.38,466.539,291.461,466.669,291.553Z" transform="translate(-452.018 -283.114)"/>
      <path id="Path_16" data-name="Path 16" d="M459.194,692.3l1.229.992c-.386.353-.757.686-1.119,1.023a1.5,1.5,0,0,0,.435,2.544,2.126,2.126,0,0,0,2.394-.406,1.443,1.443,0,0,0-.145-2.146q-2.108-1.821-4.242-3.619c-.244-.208-.517-.39-.776-.584l1.278-1.1c.683.6,1.355,1.2,2.039,1.791.963.83,1.948,1.641,2.9,2.482a2.66,2.66,0,0,1,.9,3.023,3.254,3.254,0,0,1-2.685,2.146,3.817,3.817,0,0,1-3.816-1.427,2.744,2.744,0,0,1,.352-3.566C458.327,693.061,458.752,692.7,459.194,692.3Z" transform="translate(-449.68 -672.516)"/>
      <path id="Path_17" data-name="Path 17" d="M620.194,535.225l1.293-1.072c.219.224.429.476.681.69a2.1,2.1,0,0,0,2.7.045,1.452,1.452,0,0,0-.022-2.315q-2.1-1.828-4.228-3.632a4.434,4.434,0,0,0-.451-.3l1.274-1.022a1.4,1.4,0,0,1,.181.122q2.211,1.9,4.418,3.8a2.682,2.682,0,0,1,.9,3.127,3.267,3.267,0,0,1-2.79,2.095,3.764,3.764,0,0,1-2.753-.571C620.971,535.906,620.607,535.56,620.194,535.225Z" transform="translate(-605.154 -517.69)"/>
      <path id="Path_18" data-name="Path 18" d="M549.121,458.514l-1.279-1.142c.267-.195.56-.377.809-.6a1.45,1.45,0,0,0,.027-2.315,2.1,2.1,0,0,0-2.7.041q-2.076,1.766-4.13,3.551a4.353,4.353,0,0,0-.412.471l-1.25-1.153c.446-.368.946-.772,1.433-1.184,1.1-.934,2.158-1.9,3.282-2.8,2.029-1.637,5.26-.8,5.921,1.525a2.373,2.373,0,0,1-.321,2.128A16.763,16.763,0,0,1,549.121,458.514Z" transform="translate(-528.965 -445.65)"/>
      <path id="Path_19" data-name="Path 19" d="M305.054,608.068l1.214,1.038c-.268.209-.541.4-.789.619a1.456,1.456,0,0,0-.062,2.316,2.094,2.094,0,0,0,2.727-.031q2.072-1.765,4.129-3.547c.148-.127.271-.275.4-.4l1.229,1.118c-.451.373-.993.812-1.523,1.261-1,.853-1.992,1.709-2.987,2.564a3.847,3.847,0,0,1-3.783.8,2.913,2.913,0,0,1-2.254-3.773A4.112,4.112,0,0,1,305.054,608.068Z" transform="translate(-303.184 -594.863)"/>
      <path id="Path_20" data-name="Path 20" d="M309.656,460.942l-1.2,1.086c-.5-.447-.988-.894-1.492-1.331-1.024-.887-2.059-1.765-3.082-2.652a2.77,2.77,0,0,1-.047-4.367,4,4,0,0,1,5.087.01l.778.65-1.215,1.015c-.207-.173-.44-.366-.67-.56a2.129,2.129,0,0,0-2.767-.1,1.463,1.463,0,0,0,.081,2.372C306.639,458.368,308.161,459.664,309.656,460.942Z" transform="translate(-302.789 -445.882)"/>
      <path id="Path_21" data-name="Path 21" d="M542.087,616.419,541,615.482l6.052-5.192,1.067.947Z" transform="translate(-529.737 -597.003)"/>
      <path id="Path_22" data-name="Path 22" d="M467.111,533.526l-1.05.887L460,529.18l1.053-.87Z" transform="translate(-452.566 -518.352)" fill="#ee3f27"/>
      <path id="Path_23" data-name="Path 23" d="M377.37,451.445l-1.13-.991,6.064-5.164,1.1.983Z" transform="translate(-372.767 -438.704)"/>
    </g>
  </g>
</svg>
